# xmcd
#
# Track frame offsets:
#	150
#	19925
#	34344
#	51120
#	67269
#	83873
#	105498
#	120073
#	138880
#	157735
#	172674
#	190449
#	208603
#	226970
#	244492
#	261005
#
# Disc length: 3678 seconds
#
# Revision: 1
# Processed by: cddbd v1.5.2PL0 Copyright (c) Steve Scherf et al.
# Submitted via: audiograbber 1.83.01
#
DISCID=d00e5c10
DTITLE=Various Artist - CBE490-03
DYEAR=2007
DGENRE=Country
TTITLE0=Luke Bryan - All My Friends Say
TTITLE1=George Strait - It Just Comes Natural
TTITLE2=Sara Evans - As If
TTITLE3=Toby Keith - High Maintenance Woman
TTITLE4=Bucky Covington - Different World, A
TTITLE5=Alison Krauss - Simple Love
TTITLE6=Josh Turner and Ralph Stanley - Me and God
TTITLE7=LeAnn Rimes - Nothin' Better To Do
TTITLE8=Rodney Atkins  - Watching You
TTITLE9=Terri Clark - Dirty Girl
TTITLE10=Trace Adkins - Ladies Love Country Boys
TTITLE11=Tracy Lawrence  - Find Out Who Your Friends Are
TTITLE12=Catherine Britt - What I Did Last Night
TTITLE13=Josh Gracin - I Keep Coming Back
TTITLE14=Amy Dalley - Let's Try Goodbye
TTITLE15=Eric Church - Guys Like Me
EXTD=
EXTT0=
EXTT1=
EXTT2=
EXTT3=
EXTT4=
EXTT5=
EXTT6=
EXTT7=
EXTT8=
EXTT9=
EXTT10=
EXTT11=
EXTT12=
EXTT13=
EXTT14=
EXTT15=
PLAYORDER=
